<svg width="24" height="24" viewBox="0 0 24 24" fill="none" xmlns="http://www.w3.org/2000/svg">
<path fill-rule="evenodd" clip-rule="evenodd" d="M24 12C24 18.6274 18.6274 24 12 24C11.5549 24 11.1155 23.9758 10.683 23.9285C11.1154 23.9756 11.5547 23.9994 11.9997 23.9994C12.6376 23.9994 13.2637 23.9488 13.8746 23.8543V15.469H16.6708L17.2024 11.9994H13.8746V9.74828C13.8746 8.79989 14.3387 7.87343 15.8304 7.87343H17.3441V4.92026C17.3441 4.92026 15.9705 4.6857 14.6576 4.6857C11.9171 4.6857 10.1249 6.34622 10.1249 9.35508V11.9994H7.07722V15.469H10.1249V23.8543C10.151 23.8584 10.177 23.8624 10.2032 23.8664C4.4281 22.9992 0 18.0167 0 12C0 5.37258 5.37258 0 12 0C18.6274 0 24 5.37258 24 12Z" fill="white"/>
</svg>
